<svg xmlns="http://www.w3.org/2000/svg" viewBox="0 0 400 40" width="400" height="40">
  <!-- Waving grass strip - 8-bit, seamless -->
  <defs>
    <linearGradient id="grass-grad" x1="0" y1="1" x2="0" y2="0">
      <stop offset="0" stop-color="#1a4a1a"/>
      <stop offset="1" stop-color="#3d7a3d"/>
    </linearGradient>
  </defs>
  <rect x="0" y="20" width="400" height="20" fill="url(#grass-grad)"/>
  <!-- Grass blades 8px blocks -->
  <rect x="0" y="12" width="8" height="28" fill="#2a6a2a"/>
  <rect x="16" y="8" width="8" height="32" fill="#3d7a3d"/>
  <rect x="32" y="14" width="8" height="26" fill="#2a6a2a"/>
  <rect x="48" y="10" width="8" height="30" fill="#3d7a3d"/>
  <rect x="64" y="16" width="8" height="24" fill="#2a6a2a"/>
  <rect x="80" y="8" width="8" height="32" fill="#3d7a3d"/>
  <rect x="96" y="12" width="8" height="28" fill="#2a6a2a"/>
  <rect x="112" y="10" width="8" height="30" fill="#3d7a3d"/>
  <rect x="128" y="14" width="8" height="26" fill="#2a6a2a"/>
  <rect x="144" y="8" width="8" height="32" fill="#3d7a3d"/>
  <rect x="160" y="12" width="8" height="28" fill="#2a6a2a"/>
  <rect x="176" y="10" width="8" height="30" fill="#3d7a3d"/>
  <rect x="192" y="14" width="8" height="26" fill="#2a6a2a"/>
  <rect x="208" y="8" width="8" height="32" fill="#3d7a3d"/>
  <rect x="224" y="12" width="8" height="28" fill="#2a6a2a"/>
  <rect x="240" y="10" width="8" height="30" fill="#3d7a3d"/>
  <rect x="256" y="14" width="8" height="26" fill="#2a6a2a"/>
  <rect x="272" y="8" width="8" height="32" fill="#3d7a3d"/>
  <rect x="288" y="12" width="8" height="28" fill="#2a6a2a"/>
  <rect x="304" y="10" width="8" height="30" fill="#3d7a3d"/>
  <rect x="320" y="14" width="8" height="26" fill="#2a6a2a"/>
  <rect x="336" y="8" width="8" height="32" fill="#3d7a3d"/>
  <rect x="352" y="12" width="8" height="28" fill="#2a6a2a"/>
  <rect x="368" y="10" width="8" height="30" fill="#3d7a3d"/>
  <rect x="384" y="14" width="8" height="26" fill="#2a6a2a"/>
</svg>
